<svg xmlns="http://www.w3.org/2000/svg" viewBox="0 0 150 149.73"><defs><linearGradient id="a" x1="0" y1="74.87" x2="150" y2="74.87" gradientUnits="userSpaceOnUse"><stop offset="0" stop-color="#ff8400"/><stop offset="1" stop-color="red"/></linearGradient></defs><path d="M150 42.49v10.22c-1.13 7.8-3.83 14.77-11.49 17.11-8.74 2.67-16.62 4.41-23.63 5.24-.06.01-.11.04-.16.08-.07.06-.08.15-.03.26q.075.135.21.15c1.29.1 2.54.1 3.74.01 3.89-.3 7.84-.7 11.85-1.19 3.14-.39 6.15-1.45 9.29-1.69.51-.04.58.11.2.46-12.11 11.19-29.11 18.41-44.99 21.56-.79.15-.83.05-.1-.31 5.61-2.82 11.37-5.62 15.4-10.53.86-1.05.65-1.36-.64-.92-7.85 2.69-15.88 6.05-24.07 10.08-.46.22-.72.72-.65 1.22.26 1.85.91 3.56 1.94 5.12 2.57 3.87 5.52 7.8 8.84 11.8.08.09.11.21.09.32-.34 2.25-.95 4.58-1.84 6.97-.02.06-.08.09-.14.07-.02 0-.04-.02-.05-.04l-7.61-9.91c-.75-.98-.93-.89-.53.28 1.82 5.29 4.48 10.54 7.97 15.74.21.31.18.6-.07.87-4.35 4.61-7.98 9.63-10.9 15.05-.45.83-.68.77-.69-.17-.09-8.07-.65-16.52-1.7-25.36-.07-.64-.24-1.23-.51-1.78-.23-.47-.36-.44-.38.09-.45 12.52-1.67 24.67-3.66 36.44h-.43c-.72-3.32-1.31-6.66-1.76-10.03-.77-5.71-1.53-11.42-2.3-17.14-.19-1.41-.22-2.8-.11-4.15q.195-2.205-.39-4.23c-.17-.59-.3-.58-.41.02-1.47 8.42-1.26 16.91-1.19 25.64 0 .61-.17.66-.52.17-3.73-5.35-6.15-10.4-11.82-14-.49-.31-.58-.7-.27-1.19q5.175-8.205 7.92-15.96c.53-1.51.34-1.61-.57-.29-2.22 3.19-4.75 6.58-7.6 10.19-.05.06-.14.07-.2.01-.02-.02-.03-.04-.04-.06l-1.87-7.2c-.03-.13 0-.24.09-.34 3.4-3.53 10.83-12.28 10.85-17.23 0-.47-.21-.8-.64-1.01-8.44-4.07-16.39-7.4-23.85-9.98-1.58-.55-1.82-.2-.73 1.07 4.08 4.71 9.4 7.19 14.81 10.14q1.365.75-.15.39c-15.58-3.68-32.32-9.6-44.1-21.52-.41-.42-.33-.57.24-.46 4.4.84 8.63 1.85 13.19 2.29 3.36.32 7.6 1.22 10.73.57 1.39-.28 1.38-.44-.04-.47-.89-.02-1.77-.11-2.64-.26-5.58-.99-11.63-2.39-18.14-4.18-5.56-1.53-9.55-4.45-11.52-9.56C.8 57.25.06 52.97 0 48.1v-5.74c5.61 7.9 13.02 13.21 22.22 15.92.77.23.84.09.21-.41a.65.65 0 0 0-.45-.13 1.2 1.2 0 0 1-.78-.19C13.57 52.72 5.5 45.38 2.55 36.81c-.12-.35-.14-.71-.05-1.08q2.67-10.68 10.71-18.75c.15-.15.4-.15.55 0 .07.07.11.16.12.26.26 8.34 2.94 15.23 8.04 20.68q1.065 1.125.39-.27c-3.27-6.81-4.09-13.88-2.48-21.21.38-1.77.49-3.74 2.18-4.83C31.27 5.62 42.84 2.11 53.61.2c1.49-.26 1.52-.13.11.4-5.14 1.91-10.12 4.91-14.95 8.99-4.8 4.05-7.11 9.72-6.94 17.01.13 5.48 1.28 9.92 3.45 13.31.18.28.17.56-.02.83-2.09 3.05-3.47 6.5-4.14 10.33-2.06 11.9 12.71 21.28 22.07 24.23.08.02.13 0 .16-.08s.01-.14-.07-.17c-8.69-4.1-21.88-14.65-18.96-25.77.21-.79.49-.81.86-.08 4.51 9.05 12.15 15.08 21.12 19.04.87.39 1.52 1.14 1.77 2.05 1.21 4.37 3.58 8.2 7.09 11.49.29.27.51.23.68-.14l6.64-15.14q.24-.525-.33-.39c-3.66.93-6.54 3.03-8.63 6.28-.29.46-.47.42-.53-.12q-.24-2.145.87-3.9c3.87-6.1 9.28-9.34 16.21-9.73 4.41-.25 7.59-2.27 9.52-6.08.24-.48.39-.45.45.08.5 4.43-3.04 9.05-6.26 11.73-.25.21-.38.54-.34.87l1.9 15.95c.05.39.2.44.46.14 3.01-3.47 5.13-7.3 6.34-11.49a2 2 0 0 1 1.09-1.27c8.54-3.93 16.86-9.64 20.99-18.21.97-2.01 1.56-1.9 1.77.31.43 4.41-.76 8.37-3.56 11.87-4.23 5.29-9.41 9.48-15.55 12.57-.09.05-.12.12-.08.23.03.07.08.09.15.07 6.73-2.47 14.85-6.76 18.75-12.55 4.01-5.95 4.48-11.89 1.41-17.84-.71-1.37-1.42-2.75-2.11-4.14-.2-.39-.19-.87.02-1.26 2.76-5.12 4.16-11.67 3.3-17.16-1.49-9.41-8.39-14.73-16.02-19.2A27.5 27.5 0 0 0 95.38.39c-.13-.03-.18-.12-.15-.25.03-.11.1-.16.21-.14 10.88 1.96 22.8 5.21 32.12 11.36 2.16 1.42 2.56 3.51 2.97 5.87 1.32 7.62.36 14.36-2.88 20.23-.96 1.75-.77 1.89.58.42 5.37-5.83 7.96-12.84 7.75-21.01 0-.4.14-.46.43-.19 5.06 4.69 8.73 10.72 11 18.09.38 1.24.33 2.43-.16 3.58-3.14 7.41-11.34 14.79-17.74 18.75-1.38.85-1.3 1.02.24.53.99-.32 2.19-.8 3.61-1.45 6.68-3.07 12.22-7.64 16.63-13.69Z" style="fill:url(#a);stroke-width:0"/></svg>